<mxfile host="app.diagrams.net" agent="Mozilla/5.0 (Windows NT 10.0; Win64; x64) AppleWebKit/537.36 (KHTML, like Gecko) Chrome/139.0.0.0 Safari/537.36" version="28.2.1">
  <diagram id="frJYBtmeX4YdoTAQA-1x" name="ページ1">
    <mxGraphModel dx="137" dy="498" grid="1" gridSize="10" guides="1" tooltips="1" connect="1" arrows="1" fold="1" page="1" pageScale="1" pageWidth="827" pageHeight="1169" math="0" shadow="0">
      <root>
        <mxCell id="0" />
        <mxCell id="1" parent="0" />
        <mxCell id="-tmSpXHpx5XQBEYbv7db-2" value="Actor" style="shape=umlActor;verticalLabelPosition=bottom;verticalAlign=top;html=1;outlineConnect=0;" vertex="1" parent="1">
          <mxGeometry x="260" y="190" width="30" height="60" as="geometry" />
        </mxCell>
        <mxCell id="-tmSpXHpx5XQBEYbv7db-4" value="" style="endArrow=classic;html=1;rounded=0;exitX=1;exitY=0.3333333333333333;exitDx=0;exitDy=0;exitPerimeter=0;entryX=-0.02;entryY=0.463;entryDx=0;entryDy=0;entryPerimeter=0;" edge="1" parent="1" source="-tmSpXHpx5XQBEYbv7db-2" target="-tmSpXHpx5XQBEYbv7db-12">
          <mxGeometry width="50" height="50" relative="1" as="geometry">
            <mxPoint x="330" y="310" as="sourcePoint" />
            <mxPoint x="290" y="120" as="targetPoint" />
          </mxGeometry>
        </mxCell>
        <mxCell id="-tmSpXHpx5XQBEYbv7db-8" value="" style="endArrow=classic;html=1;rounded=0;exitX=1.027;exitY=0.496;exitDx=0;exitDy=0;exitPerimeter=0;entryX=0.019;entryY=0.588;entryDx=0;entryDy=0;entryPerimeter=0;" edge="1" parent="1" source="-tmSpXHpx5XQBEYbv7db-12" target="-tmSpXHpx5XQBEYbv7db-13">
          <mxGeometry width="50" height="50" relative="1" as="geometry">
            <mxPoint x="460" y="150" as="sourcePoint" />
            <mxPoint x="500" y="180" as="targetPoint" />
          </mxGeometry>
        </mxCell>
        <mxCell id="-tmSpXHpx5XQBEYbv7db-12" value="メニュー&lt;div&gt;画面&lt;/div&gt;" style="shape=umlBoundary;whiteSpace=wrap;html=1;" vertex="1" parent="1">
          <mxGeometry x="350" y="120" width="100" height="80" as="geometry" />
        </mxCell>
        <mxCell id="-tmSpXHpx5XQBEYbv7db-13" value="表示(する)" style="ellipse;shape=umlControl;whiteSpace=wrap;html=1;" vertex="1" parent="1">
          <mxGeometry x="530" y="130" width="70" height="80" as="geometry" />
        </mxCell>
        <mxCell id="-tmSpXHpx5XQBEYbv7db-16" value="" style="endArrow=classic;html=1;rounded=0;exitX=0.219;exitY=0.954;exitDx=0;exitDy=0;exitPerimeter=0;entryX=1.033;entryY=0.488;entryDx=0;entryDy=0;entryPerimeter=0;" edge="1" parent="1" source="-tmSpXHpx5XQBEYbv7db-13" target="-tmSpXHpx5XQBEYbv7db-17">
          <mxGeometry width="50" height="50" relative="1" as="geometry">
            <mxPoint x="490" y="290" as="sourcePoint" />
            <mxPoint x="470" y="310" as="targetPoint" />
          </mxGeometry>
        </mxCell>
        <mxCell id="-tmSpXHpx5XQBEYbv7db-17" value="学生登録&lt;div&gt;画面&lt;/div&gt;" style="shape=umlBoundary;whiteSpace=wrap;html=1;" vertex="1" parent="1">
          <mxGeometry x="350" y="270" width="100" height="80" as="geometry" />
        </mxCell>
        <mxCell id="-tmSpXHpx5XQBEYbv7db-18" value="" style="endArrow=classic;html=1;rounded=0;entryX=-0.013;entryY=0.521;entryDx=0;entryDy=0;entryPerimeter=0;" edge="1" parent="1" source="-tmSpXHpx5XQBEYbv7db-2" target="-tmSpXHpx5XQBEYbv7db-17">
          <mxGeometry width="50" height="50" relative="1" as="geometry">
            <mxPoint x="310" y="290" as="sourcePoint" />
            <mxPoint x="360" y="240" as="targetPoint" />
          </mxGeometry>
        </mxCell>
        <mxCell id="-tmSpXHpx5XQBEYbv7db-19" value="②学生情報を入力する" style="text;html=1;align=center;verticalAlign=middle;whiteSpace=wrap;rounded=0;" vertex="1" parent="1">
          <mxGeometry x="230" y="300" width="90" height="30" as="geometry" />
        </mxCell>
        <mxCell id="-tmSpXHpx5XQBEYbv7db-20" value="①メニュー画面をクリックする" style="text;html=1;align=center;verticalAlign=middle;whiteSpace=wrap;rounded=0;" vertex="1" parent="1">
          <mxGeometry x="230" y="130" width="90" height="30" as="geometry" />
        </mxCell>
        <mxCell id="-tmSpXHpx5XQBEYbv7db-21" value="学生情報&lt;div&gt;登録&lt;/div&gt;" style="ellipse;shape=umlControl;whiteSpace=wrap;html=1;" vertex="1" parent="1">
          <mxGeometry x="530" y="310" width="70" height="80" as="geometry" />
        </mxCell>
        <mxCell id="-tmSpXHpx5XQBEYbv7db-22" value="" style="endArrow=classic;html=1;rounded=0;exitX=1;exitY=0.75;exitDx=0;exitDy=0;exitPerimeter=0;entryX=0.014;entryY=0.529;entryDx=0;entryDy=0;entryPerimeter=0;" edge="1" parent="1" source="-tmSpXHpx5XQBEYbv7db-17" target="-tmSpXHpx5XQBEYbv7db-21">
          <mxGeometry width="50" height="50" relative="1" as="geometry">
            <mxPoint x="430" y="390" as="sourcePoint" />
            <mxPoint x="480" y="340" as="targetPoint" />
          </mxGeometry>
        </mxCell>
        <mxCell id="-tmSpXHpx5XQBEYbv7db-23" value="" style="endArrow=classic;startArrow=classic;html=1;rounded=0;fillColor=#f8cecc;strokeColor=#b85450;exitX=1.005;exitY=0.596;exitDx=0;exitDy=0;exitPerimeter=0;" edge="1" parent="1" source="-tmSpXHpx5XQBEYbv7db-21" target="-tmSpXHpx5XQBEYbv7db-24">
          <mxGeometry width="50" height="50" relative="1" as="geometry">
            <mxPoint x="640" y="390" as="sourcePoint" />
            <mxPoint x="720" y="358" as="targetPoint" />
          </mxGeometry>
        </mxCell>
        <mxCell id="-tmSpXHpx5XQBEYbv7db-24" value="学生オブジェクト&lt;div&gt;(データ)&lt;/div&gt;" style="ellipse;shape=umlEntity;whiteSpace=wrap;html=1;" vertex="1" parent="1">
          <mxGeometry x="680" y="318" width="110" height="80" as="geometry" />
        </mxCell>
      </root>
    </mxGraphModel>
  </diagram>
</mxfile>
